HIERARCHY
ROOT Hips
{
	OFFSET	0.00	0.00	0.00
	CHANNELS 6 Xposition Yposition Zposition Zrotation Xrotation Yrotation
	JOINT LeftUpLeg
	{
		OFFSET	 0.126116	-0.065224	 0.014019
		CHANNELS 3 Zrotation Xrotation Yrotation
		JOINT LeftLeg
		{
			OFFSET	 0.000000	 0.569914	 0.000000
			CHANNELS 3 Zrotation Xrotation Yrotation
			JOINT LeftFoot
			{
				OFFSET	 0.000000	 0.544423	 0.000000
				CHANNELS 3 Zrotation Xrotation Yrotation
				JOINT LeftToeBase
				{
					OFFSET	 0.000000	 0.207117	 0.000000
					CHANNELS 3 Zrotation Xrotation Yrotation
					End Site
					{
						OFFSET	 0.000000	 0.207117	 0.000000
					}
				}
			}
		}
	}
	JOINT RightUpLeg
	{
		OFFSET	-0.124023	-0.065224	 0.008373
		CHANNELS 3 Zrotation Xrotation Yrotation
		JOINT RightLeg
		{
			OFFSET	 0.000000	 0.570047	 0.000000
			CHANNELS 3 Zrotation Xrotation Yrotation
			JOINT RightFoot
			{
				OFFSET	 0.000000	 0.544354	 0.000000
				CHANNELS 3 Zrotation Xrotation Yrotation
				JOINT RightToeBase
				{
					OFFSET	 0.000000	 0.207540	 0.000000
					CHANNELS 3 Zrotation Xrotation Yrotation
					End Site
					{
						OFFSET	 0.000000	 0.207540	 0.000000
					}
				}
			}
		}
	}
	JOINT Spine
	{
		OFFSET	 0.000184	 0.117403	 0.007763
		CHANNELS 3 Zrotation Xrotation Yrotation
		JOINT Spine1
		{
			OFFSET	 0.000000	 0.137269	 0.000000
			CHANNELS 3 Zrotation Xrotation Yrotation
			JOINT Spine2
			{
				OFFSET	 0.000000	 0.156879	 0.000000
				CHANNELS 3 Zrotation Xrotation Yrotation
				JOINT LeftShoulder
				{
					OFFSET	 0.080501	 0.160143	 0.002496
					CHANNELS 3 Zrotation Xrotation Yrotation
					JOINT LeftArm
					{
						OFFSET	 0.000000	 0.164363	 0.000000
						CHANNELS 3 Zrotation Xrotation Yrotation
						JOINT LeftForeArm
						{
							OFFSET	 0.000000	 0.364576	 0.000000
							CHANNELS 3 Zrotation Xrotation Yrotation
							JOINT LeftHand
							{
								OFFSET	 0.000000	 0.360812	 0.000000
								CHANNELS 3 Zrotation Xrotation Yrotation
								JOINT LeftHandIndex1
								{
									OFFSET	 0.000000	 0.086006	 0.000000
									CHANNELS 3 Zrotation Xrotation Yrotation
									JOINT LeftHandIndex2
									{
										OFFSET	 0.000000	 0.047237	 0.000000
										CHANNELS 3 Zrotation Xrotation Yrotation
										JOINT LeftHandIndex3
										{
											OFFSET	-0.004284	 0.038165	 0.000551
											CHANNELS 3 Zrotation Xrotation Yrotation
											End Site
											{
												OFFSET	-0.004284	 0.038165	 0.000551
											}
										}
									}
								}
							}
						}
					}
				}
				JOINT Neck
				{
					OFFSET	 0.000000	 0.176489	 0.000000
					CHANNELS 3 Zrotation Xrotation Yrotation
					JOINT Head
					{
						OFFSET	 0.000000	 0.077941	 0.001747
						CHANNELS 3 Zrotation Xrotation Yrotation
						End Site
						{
							OFFSET	 0.000000	 0.077941	 0.001747
						}
					}
				}
				JOINT RightShoulder
				{
					OFFSET	-0.080363	 0.159706	-0.000306
					CHANNELS 3 Zrotation Xrotation Yrotation
					JOINT RightArm
					{
						OFFSET	 0.000000	 0.164196	 0.000000
						CHANNELS 3 Zrotation Xrotation Yrotation
						JOINT RightForeArm
						{
							OFFSET	 0.000000	 0.365611	 0.000000
							CHANNELS 3 Zrotation Xrotation Yrotation
							JOINT RightHand
							{
								OFFSET	 0.000000	 0.360648	 0.000000
								CHANNELS 3 Zrotation Xrotation Yrotation
								JOINT RightHandIndex1
								{
									OFFSET	 0.000000	 0.069977	 0.000000
									CHANNELS 3 Zrotation Xrotation Yrotation
									JOINT RightHandIndex2
									{
										OFFSET	 0.000000	 0.052305	 0.000000
										CHANNELS 3 Zrotation Xrotation Yrotation
										JOINT RightHandIndex3
										{
											OFFSET	 0.009002	 0.042196	 0.000782
											CHANNELS 3 Zrotation Xrotation Yrotation
											End Site
											{
												OFFSET	 0.009002	 0.042196	 0.000782
											}
										}
									}
								}
							}
						}
					}
				}
			}
		}
	}
}
MOTION
Frames:    7
Frame Time: 0.03333334
-0.099826	 1.267968	-0.066619	 11.565350	-1.837271	-166.860400	-158.592800	 19.011210	-10.316280	 5.108711	-18.493540	 8.107150	-0.152763	 52.854660	-7.792303	 1.774155	 34.396960	-2.946602	 168.244500	 9.637728	 52.211170	-3.393334	-37.998720	 7.447640	 9.576072	 61.706030	-6.872135	-3.956004	 53.266020	 4.397333	-4.029103	 5.771232	-5.179561	-0.844165	 8.821923	 0.888886	-1.986226	-9.366305	 6.792565	-100.705900	 3.747873	 93.471840	 58.625200	 40.340800	-13.986960	 27.377410	-1.244350	-1.408690	 24.667610	-13.540020	-11.855740	 3.676293	 55.012590	-2.078781	-8.739646	 61.304850	 9.033182	 6.614200	 34.426910	 0.048616	 3.675525	-10.874810	-3.049117	 6.343297	-7.675790	-5.231894	 88.826920	 22.444360	-80.955600	-23.719890	 32.755120	-7.683657	-60.936460	-1.879083	 0.556009	 8.869188	-13.693550	-24.227440	-4.640108	-13.377690	-0.556409	 11.961630	 3.955579	-0.952145	-8.148210	-5.453725	 0.670026
-0.092577	 1.262233	-0.067738	 12.271840	-2.918090	-162.496300	-159.312700	 22.037260	-6.633687	 5.315017	-19.184760	 9.080890	 3.040863	 54.353110	-9.922922	 1.585104	 32.173000	-2.901913	 168.467300	 11.528980	 51.172860	-3.587273	-39.551380	 5.773928	 10.206300	 63.486680	-4.991969	-3.963642	 53.313280	 4.403272	-4.812583	 6.352595	 0.954983	-1.655621	 10.479770	 2.686094	-1.579511	-10.265490	 4.737842	-101.346100	 3.769740	 93.464930	 63.194150	 36.632210	-17.747960	 13.240750	-0.554210	-1.746790	 30.816520	-7.669882	-7.761241	 3.724135	 55.389730	-2.111645	-8.812795	 61.609560	 9.131649	 6.613565	 34.413320	 0.048690	 3.364793	-11.576400	-3.451220	 5.580108	-8.448381	-8.101158	 99.741650	 26.787260	-97.197290	-64.275280	 28.564580	 8.593290	-7.199582	-0.187317	 1.781909	-3.461926	 2.100763	-24.603120	-4.652728	-9.398059	-0.638720	 11.967350	 8.403978	-1.900048	-8.287845	-0.170150	 0.318715
-0.094218	 1.241626	-0.064877	 12.363150	-4.153412	-161.481900	-160.437700	 27.941930	-6.105074	 8.184755	-28.135570	 11.582880	 7.971449	 61.644640	-14.194500	 1.330403	 28.944470	-2.748198	 169.101000	 12.642470	 49.191410	-3.593333	-39.598850	 5.504282	 12.225260	 71.167700	-5.253547	-3.052536	 46.867480	 3.728484	-5.334725	 6.394905	 8.303766	-2.849187	 11.620490	 3.920897	-0.793250	-11.503340	 3.511621	-101.811800	 3.252303	 93.325780	 57.804740	 37.669000	-10.358270	 7.549669	-0.258091	-1.891662	 26.777530	-1.659867	 7.551714	 3.792756	 55.247130	-2.161428	-8.832592	 61.690770	 9.158195	 6.610026	 34.338040	 0.049086	 3.574676	-12.277000	-3.793146	 5.749372	-9.564313	-9.804074	 101.109800	 28.183070	-97.653660	-66.010640	 35.676040	 8.115970	-7.396591	-0.190038	 1.872621	 7.061919	 0.109408	-25.581100	-4.804102	 5.527905	-0.639855	 12.874810	 26.951020	-6.166813	-8.534265	 19.504880	-0.933460
-0.096270	 1.232202	-0.062653	 12.141780	-4.943533	-161.026600	-161.351700	 30.410850	-6.012784	 9.383539	-31.483920	 12.771380	 11.682700	 64.781230	-17.193460	 1.196794	 27.157950	-2.673574	 169.457500	 12.906130	 48.420460	-3.480161	-38.702220	 5.907888	 13.914330	 75.406930	-6.731825	-2.556923	 42.565430	 3.396319	-5.734409	 6.240026	 13.077280	-3.195886	 11.713370	 4.399922	-0.399782	-11.835530	 2.582928	-102.268900	 2.937472	 93.226590	 51.000910	 39.925510	-4.723402	 7.546269	-0.252671	-1.964494	 21.820980	 1.010699	 17.514350	 3.836649	 55.164460	-2.193347	-8.835596	 61.703080	 9.162223	 6.609167	 34.319790	 0.049186	 3.731907	-12.536210	-3.953678	 5.642879	-10.071500	-10.654800	 102.062000	 28.655590	-97.910920	-64.210240	 40.757920	 6.658318	-7.550785	-0.192047	 1.944584	 10.667120	-1.721108	-28.538850	-4.885174	 13.093760	-0.625204	 14.053470	 36.308980	-8.794760	-8.485368	 29.561850	-1.610480
-0.099189	 1.231174	-0.060915	 11.537480	-5.465824	-161.079700	-162.233000	 30.840710	-6.574413	 9.465943	-31.705440	 12.850330	 12.892610	 65.389910	-17.818370	 1.165893	 26.741600	-2.661192	 169.288700	 12.296750	 49.268420	-3.269204	-36.968840	 7.528837	 17.000040	 76.832030	-11.117350	-2.245459	 39.525180	 3.203581	-5.931157	 5.808988	 17.006680	-3.686192	 11.592470	 5.022142	 0.042180	-11.586310	 1.800624	-102.925400	 2.784750	 93.145830	 44.412680	 42.932270	-2.201644	 7.641888	-0.251981	-2.042631	 19.763680	 4.382020	 24.352980	 3.863725	 55.134890	-2.213375	-8.814261	 61.615680	 9.133634	 6.612004	 34.380230	 0.048880	 3.886060	-12.240090	-3.914343	 5.071671	-9.877072	-10.583180	 102.723700	 28.027730	-97.898050	-58.478420	 44.419460	 4.538535	-7.664598	-0.192190	 2.022709	 8.596273	-5.090494	-35.361800	-4.891903	 13.083230	-0.625692	 14.068570	 36.401860	-8.823649	-8.484863	 29.603980	-1.613472
-0.101717	 1.232227	-0.058927	 10.844390	-5.860019	-161.228000	-163.108000	 30.726140	-7.136513	 9.262300	-31.155930	 12.778460	 13.975640	 65.547680	-18.295020	 1.136587	 26.344040	-2.649646	 169.103100	 11.618540	 50.121660	-3.053375	-35.109570	 9.217198	 21.811410	 77.911190	-17.234090	-1.971778	 36.621260	 3.046082	-6.110731	 5.466882	 20.408530	-3.736336	 10.920290	 5.198216	 0.370647	-11.061800	 0.903134	-103.552300	 2.639797	 93.067070	 37.206630	 46.032730	 1.224194	 7.737908	-0.251577	-2.116192	 17.035220	 6.619647	 30.944670	 3.889542	 55.106620	-2.232461	-8.794037	 61.532230	 9.106481	 6.614715	 34.437930	 0.048585	 4.032897	-11.957240	-3.877583	 4.530467	-9.692397	-10.546950	 103.409300	 27.354320	-97.904240	-50.572960	 47.267130	 0.501677	-7.777603	-0.192580	 2.096226	 4.523281	-7.004062	-42.669470	-4.898327	 13.073180	-0.626159	 14.083050	 36.490520	-8.851290	-8.484380	 29.644220	-1.616330
-0.103744	 1.233177	-0.057072	 9.903239	-5.900691	-162.579400	-163.399800	 29.809420	-8.888133	 9.039084	-30.545910	 12.513160	 14.233520	 65.835010	-18.184500	 1.126441	 26.205810	-2.645692	 168.674300	 11.078630	 49.404840	-2.913542	-33.857260	 10.346550	 24.895230	 77.978420	-21.097810	-1.831312	 35.042830	 2.969999	-5.962717	 5.121725	 23.540800	-4.032382	 10.282470	 5.541570	 0.871415	-10.415810	 0.053514	-103.987800	 2.528028	 92.975290	 30.316720	 48.819030	 3.638489	 7.822249	-0.250709	-2.188893	 15.797290	 9.234201	 34.135770	 3.897570	 55.123210	-2.239025	-8.771103	 61.436900	 9.075625	 6.618485	 34.518060	 0.048166	 4.116482	-11.456160	-3.724870	 3.872513	-9.404260	-10.049090	 104.350400	 26.551830	-97.930480	-41.600110	 49.615510	-2.831755	-7.882767	-0.192702	 2.168907	-0.454807	-8.545468	-48.165330	-4.877604	 12.947610	-0.617188	 14.079630	 36.469540	-8.844750	-8.484932	 29.598470	-1.613077
